G75*
%MOIN*%
%OFA0B0*%
%FSLAX25Y25*%
%IPPOS*%
%LPD*%
%AMOC8*
5,1,8,0,0,1.08239X$1,22.5*
%
%ADD10C,0.00000*%
%ADD11C,0.00400*%
%ADD12C,0.00591*%
%ADD13C,0.00984*%
%ADD14C,0.00800*%
%ADD15R,0.02400X0.06200*%
%ADD16C,0.00600*%
%ADD17C,0.02000*%
%ADD18C,0.00500*%
%ADD19C,0.02600*%
D10*
X0001500Y0021602D02*
X0001500Y0126562D01*
X0170201Y0126562D01*
X0170201Y0021602D01*
X0001500Y0021602D01*
X0054000Y0091102D02*
X0054000Y0091202D01*
X0054050Y0091202D01*
X0054067Y0091185D01*
X0054067Y0091152D01*
X0054050Y0091135D01*
X0054000Y0091135D01*
X0054092Y0091202D02*
X0054159Y0091202D01*
X0054184Y0091202D02*
X0054234Y0091202D01*
X0054251Y0091185D01*
X0054251Y0091152D01*
X0054234Y0091135D01*
X0054184Y0091135D01*
X0054184Y0091102D02*
X0054184Y0091202D01*
X0054125Y0091202D02*
X0054125Y0091102D01*
X0054218Y0091135D02*
X0054251Y0091102D01*
X0054276Y0091102D02*
X0054343Y0091102D01*
X0054368Y0091102D02*
X0054418Y0091102D01*
X0054435Y0091118D01*
X0054435Y0091135D01*
X0054418Y0091152D01*
X0054368Y0091152D01*
X0054368Y0091202D02*
X0054418Y0091202D01*
X0054435Y0091185D01*
X0054435Y0091168D01*
X0054418Y0091152D01*
X0054460Y0091168D02*
X0054494Y0091202D01*
X0054494Y0091102D01*
X0054527Y0091102D02*
X0054460Y0091102D01*
X0054368Y0091102D02*
X0054368Y0091202D01*
X0054310Y0091202D02*
X0054310Y0091102D01*
X0054276Y0091168D02*
X0054310Y0091202D01*
X0054569Y0091118D02*
X0054569Y0091102D01*
X0054586Y0091102D01*
X0054586Y0091118D01*
X0054569Y0091118D01*
X0054586Y0091102D02*
X0054552Y0091068D01*
X0054614Y0091102D02*
X0054681Y0091168D01*
X0054681Y0091185D01*
X0054664Y0091202D01*
X0054631Y0091202D01*
X0054614Y0091185D01*
X0054614Y0091102D02*
X0054681Y0091102D01*
X0054706Y0091102D02*
X0054706Y0091118D01*
X0054773Y0091185D01*
X0054773Y0091202D01*
X0054706Y0091202D01*
D11*
X0055363Y0083906D02*
X0054596Y0083138D01*
X0055363Y0083906D02*
X0056898Y0083906D01*
X0057665Y0083138D01*
X0057665Y0082371D01*
X0054596Y0079302D01*
X0057665Y0079302D01*
X0061700Y0079302D02*
X0061700Y0083906D01*
X0064002Y0083906D01*
X0064769Y0083138D01*
X0064769Y0081604D01*
X0064002Y0080836D01*
X0061700Y0080836D01*
X0063235Y0080836D02*
X0064769Y0079302D01*
X0066304Y0079302D02*
X0069373Y0079302D01*
X0067839Y0079302D02*
X0067839Y0083906D01*
X0066304Y0082371D01*
X0078696Y0086802D02*
X0078696Y0088336D01*
X0078696Y0087569D02*
X0083300Y0087569D01*
X0083300Y0086802D02*
X0083300Y0088336D01*
X0084696Y0086802D02*
X0089300Y0086802D01*
X0089300Y0089871D01*
X0089300Y0091406D02*
X0084696Y0091406D01*
X0086231Y0092940D01*
X0084696Y0094475D01*
X0089300Y0094475D01*
X0088533Y0096009D02*
X0089300Y0096777D01*
X0089300Y0098311D01*
X0088533Y0099079D01*
X0087765Y0099079D01*
X0086998Y0098311D01*
X0086998Y0097544D01*
X0086998Y0098311D02*
X0086231Y0099079D01*
X0085463Y0099079D01*
X0084696Y0098311D01*
X0084696Y0096777D01*
X0085463Y0096009D01*
X0083300Y0094475D02*
X0080231Y0097544D01*
X0079463Y0097544D01*
X0078696Y0096777D01*
X0078696Y0095242D01*
X0079463Y0094475D01*
X0079463Y0092940D02*
X0078696Y0092173D01*
X0078696Y0090638D01*
X0079463Y0089871D01*
X0082533Y0089871D01*
X0083300Y0090638D01*
X0083300Y0092173D01*
X0082533Y0092940D01*
X0083300Y0094475D02*
X0083300Y0097544D01*
X0085463Y0100613D02*
X0084696Y0101381D01*
X0084696Y0102915D01*
X0085463Y0103683D01*
X0086231Y0103683D01*
X0089300Y0100613D01*
X0089300Y0103683D01*
X0086998Y0105217D02*
X0086998Y0108287D01*
X0089300Y0107519D02*
X0084696Y0107519D01*
X0086998Y0105217D01*
X0084696Y0109821D02*
X0084696Y0112123D01*
X0085463Y0112891D01*
X0088533Y0112891D01*
X0089300Y0112123D01*
X0089300Y0109821D01*
X0084696Y0109821D01*
X0061300Y0111802D02*
X0056696Y0111802D01*
X0056696Y0114104D01*
X0057463Y0114871D01*
X0058998Y0114871D01*
X0059765Y0114104D01*
X0059765Y0111802D01*
X0059765Y0113336D02*
X0061300Y0114871D01*
X0060533Y0116406D02*
X0059765Y0116406D01*
X0058998Y0117173D01*
X0058998Y0118708D01*
X0059765Y0119475D01*
X0060533Y0119475D01*
X0061300Y0118708D01*
X0061300Y0117173D01*
X0060533Y0116406D01*
X0058998Y0117173D02*
X0058231Y0116406D01*
X0057463Y0116406D01*
X0056696Y0117173D01*
X0056696Y0118708D01*
X0057463Y0119475D01*
X0058231Y0119475D01*
X0058998Y0118708D01*
X0046300Y0116406D02*
X0045533Y0116406D01*
X0042463Y0119475D01*
X0041696Y0119475D01*
X0041696Y0116406D01*
X0042463Y0114871D02*
X0043998Y0114871D01*
X0044765Y0114104D01*
X0044765Y0111802D01*
X0044765Y0113336D02*
X0046300Y0114871D01*
X0046300Y0111802D02*
X0041696Y0111802D01*
X0041696Y0114104D01*
X0042463Y0114871D01*
X0046800Y0108475D02*
X0046800Y0105406D01*
X0046800Y0106940D02*
X0042196Y0106940D01*
X0043731Y0105406D01*
X0042963Y0103871D02*
X0042196Y0103104D01*
X0042196Y0100802D01*
X0046800Y0100802D01*
X0046800Y0103104D01*
X0046033Y0103871D01*
X0042963Y0103871D01*
X0049992Y0083906D02*
X0052294Y0083906D01*
X0053061Y0083138D01*
X0053061Y0081604D01*
X0052294Y0080836D01*
X0049992Y0080836D01*
X0051527Y0080836D02*
X0053061Y0079302D01*
X0049992Y0079302D02*
X0049992Y0083906D01*
X0050759Y0066406D02*
X0049992Y0065638D01*
X0049992Y0062569D01*
X0050759Y0061802D01*
X0052294Y0061802D01*
X0053061Y0062569D01*
X0054596Y0062569D02*
X0055363Y0061802D01*
X0056898Y0061802D01*
X0057665Y0062569D01*
X0057665Y0064104D01*
X0056898Y0064871D01*
X0056131Y0064871D01*
X0054596Y0064104D01*
X0054596Y0066406D01*
X0057665Y0066406D01*
X0053061Y0065638D02*
X0052294Y0066406D01*
X0050759Y0066406D01*
X0045339Y0066406D02*
X0045339Y0061802D01*
X0046873Y0061802D02*
X0043804Y0061802D01*
X0042269Y0062569D02*
X0041502Y0061802D01*
X0039967Y0061802D01*
X0039200Y0062569D01*
X0039200Y0065638D01*
X0039967Y0066406D01*
X0041502Y0066406D01*
X0042269Y0065638D01*
X0043804Y0064871D02*
X0045339Y0066406D01*
X0074967Y0031406D02*
X0074200Y0030638D01*
X0074200Y0027569D01*
X0074967Y0026802D01*
X0076502Y0026802D01*
X0077269Y0027569D01*
X0078804Y0026802D02*
X0081873Y0029871D01*
X0081873Y0030638D01*
X0081106Y0031406D01*
X0079571Y0031406D01*
X0078804Y0030638D01*
X0077269Y0030638D02*
X0076502Y0031406D01*
X0074967Y0031406D01*
X0078804Y0026802D02*
X0081873Y0026802D01*
X0096700Y0034104D02*
X0099769Y0034104D01*
X0101304Y0032569D02*
X0101304Y0031802D01*
X0101304Y0032569D02*
X0104373Y0035638D01*
X0104373Y0036406D01*
X0101304Y0036406D01*
X0099002Y0036406D02*
X0096700Y0034104D01*
X0099002Y0031802D02*
X0099002Y0036406D01*
X0105908Y0035638D02*
X0105908Y0032569D01*
X0108977Y0035638D01*
X0108977Y0032569D01*
X0108210Y0031802D01*
X0106675Y0031802D01*
X0105908Y0032569D01*
X0106700Y0031406D02*
X0109002Y0031406D01*
X0109769Y0030638D01*
X0109769Y0029104D01*
X0109002Y0028336D01*
X0106700Y0028336D01*
X0108235Y0028336D02*
X0109769Y0026802D01*
X0111304Y0029104D02*
X0114373Y0029104D01*
X0113606Y0026802D02*
X0113606Y0031406D01*
X0111304Y0029104D01*
X0106700Y0026802D02*
X0106700Y0031406D01*
X0105908Y0035638D02*
X0106675Y0036406D01*
X0108210Y0036406D01*
X0108977Y0035638D01*
X0129967Y0079302D02*
X0131502Y0079302D01*
X0132269Y0080069D01*
X0133804Y0080069D02*
X0134571Y0079302D01*
X0136106Y0079302D01*
X0136873Y0080069D01*
X0136873Y0080836D01*
X0136106Y0081604D01*
X0135339Y0081604D01*
X0136106Y0081604D02*
X0136873Y0082371D01*
X0136873Y0083138D01*
X0136106Y0083906D01*
X0134571Y0083906D01*
X0133804Y0083138D01*
X0132269Y0083138D02*
X0131502Y0083906D01*
X0129967Y0083906D01*
X0129200Y0083138D01*
X0129200Y0080069D01*
X0129967Y0079302D01*
X0129200Y0086802D02*
X0129200Y0091406D01*
X0131502Y0091406D01*
X0132269Y0090638D01*
X0132269Y0089104D01*
X0131502Y0088336D01*
X0129200Y0088336D01*
X0130735Y0088336D02*
X0132269Y0086802D01*
X0133804Y0087569D02*
X0134571Y0086802D01*
X0136106Y0086802D01*
X0136873Y0087569D01*
X0136873Y0090638D01*
X0136106Y0091406D01*
X0134571Y0091406D01*
X0133804Y0090638D01*
X0133804Y0089871D01*
X0134571Y0089104D01*
X0136873Y0089104D01*
X0136873Y0094302D02*
X0133804Y0094302D01*
X0135339Y0094302D02*
X0135339Y0098906D01*
X0133804Y0097371D01*
X0132269Y0098138D02*
X0132269Y0096604D01*
X0131502Y0095836D01*
X0129200Y0095836D01*
X0129200Y0094302D02*
X0129200Y0098906D01*
X0131502Y0098906D01*
X0132269Y0098138D01*
X0130735Y0095836D02*
X0132269Y0094302D01*
X0138408Y0095069D02*
X0139175Y0094302D01*
X0140710Y0094302D01*
X0141477Y0095069D01*
X0141477Y0098138D01*
X0138408Y0095069D01*
X0138408Y0098138D01*
X0139175Y0098906D01*
X0140710Y0098906D01*
X0141477Y0098138D01*
X0136873Y0102569D02*
X0136106Y0101802D01*
X0134571Y0101802D01*
X0133804Y0102569D01*
X0132269Y0101802D02*
X0130735Y0103336D01*
X0131502Y0103336D02*
X0132269Y0104104D01*
X0132269Y0105638D01*
X0131502Y0106406D01*
X0129200Y0106406D01*
X0129200Y0101802D01*
X0129200Y0103336D02*
X0131502Y0103336D01*
X0133804Y0105638D02*
X0134571Y0106406D01*
X0136106Y0106406D01*
X0136873Y0105638D01*
X0136873Y0104871D01*
X0136106Y0104104D01*
X0136873Y0103336D01*
X0136873Y0102569D01*
X0136106Y0104104D02*
X0135339Y0104104D01*
X0134571Y0109302D02*
X0136106Y0109302D01*
X0136873Y0110069D01*
X0136873Y0110836D01*
X0136106Y0111604D01*
X0133804Y0111604D01*
X0133804Y0110069D01*
X0134571Y0109302D01*
X0132269Y0109302D02*
X0130735Y0110836D01*
X0131502Y0110836D02*
X0132269Y0111604D01*
X0132269Y0113138D01*
X0131502Y0113906D01*
X0129200Y0113906D01*
X0129200Y0109302D01*
X0129200Y0110836D02*
X0131502Y0110836D01*
X0133804Y0111604D02*
X0135339Y0113138D01*
X0136873Y0113906D01*
X0136106Y0116802D02*
X0134571Y0116802D01*
X0133804Y0117569D01*
X0133804Y0119104D02*
X0135339Y0119871D01*
X0136106Y0119871D01*
X0136873Y0119104D01*
X0136873Y0117569D01*
X0136106Y0116802D01*
X0133804Y0119104D02*
X0133804Y0121406D01*
X0136873Y0121406D01*
X0132269Y0120638D02*
X0132269Y0119104D01*
X0131502Y0118336D01*
X0129200Y0118336D01*
X0129200Y0116802D02*
X0129200Y0121406D01*
X0131502Y0121406D01*
X0132269Y0120638D01*
X0130735Y0118336D02*
X0132269Y0116802D01*
D12*
X0111244Y0076602D02*
X0111244Y0036602D01*
X0061756Y0036602D01*
X0061756Y0076602D01*
X0111244Y0076602D01*
D13*
X0058016Y0076102D02*
X0058018Y0076146D01*
X0058024Y0076190D01*
X0058034Y0076233D01*
X0058047Y0076275D01*
X0058065Y0076315D01*
X0058086Y0076354D01*
X0058110Y0076391D01*
X0058137Y0076426D01*
X0058168Y0076458D01*
X0058201Y0076487D01*
X0058237Y0076513D01*
X0058275Y0076535D01*
X0058315Y0076554D01*
X0058356Y0076570D01*
X0058399Y0076582D01*
X0058442Y0076590D01*
X0058486Y0076594D01*
X0058530Y0076594D01*
X0058574Y0076590D01*
X0058617Y0076582D01*
X0058660Y0076570D01*
X0058701Y0076554D01*
X0058741Y0076535D01*
X0058779Y0076513D01*
X0058815Y0076487D01*
X0058848Y0076458D01*
X0058879Y0076426D01*
X0058906Y0076391D01*
X0058930Y0076354D01*
X0058951Y0076315D01*
X0058969Y0076275D01*
X0058982Y0076233D01*
X0058992Y0076190D01*
X0058998Y0076146D01*
X0059000Y0076102D01*
X0058998Y0076058D01*
X0058992Y0076014D01*
X0058982Y0075971D01*
X0058969Y0075929D01*
X0058951Y0075889D01*
X0058930Y0075850D01*
X0058906Y0075813D01*
X0058879Y0075778D01*
X0058848Y0075746D01*
X0058815Y0075717D01*
X0058779Y0075691D01*
X0058741Y0075669D01*
X0058701Y0075650D01*
X0058660Y0075634D01*
X0058617Y0075622D01*
X0058574Y0075614D01*
X0058530Y0075610D01*
X0058486Y0075610D01*
X0058442Y0075614D01*
X0058399Y0075622D01*
X0058356Y0075634D01*
X0058315Y0075650D01*
X0058275Y0075669D01*
X0058237Y0075691D01*
X0058201Y0075717D01*
X0058168Y0075746D01*
X0058137Y0075778D01*
X0058110Y0075813D01*
X0058086Y0075850D01*
X0058065Y0075889D01*
X0058047Y0075929D01*
X0058034Y0075971D01*
X0058024Y0076014D01*
X0058018Y0076058D01*
X0058016Y0076102D01*
D14*
X0058969Y0101739D02*
X0058969Y0106464D01*
X0055031Y0104102D01*
X0058969Y0101739D01*
D15*
X0054300Y0104102D03*
D16*
X0028500Y0104902D02*
X0028500Y0108302D01*
X0028500Y0114902D02*
X0028500Y0116602D01*
X0008500Y0116602D01*
X0008500Y0114902D01*
X0008500Y0108302D02*
X0008500Y0104902D01*
X0008500Y0098302D02*
X0008500Y0094902D01*
X0008500Y0088302D02*
X0008500Y0084902D01*
X0008500Y0078302D02*
X0008500Y0074902D01*
X0008500Y0068302D02*
X0008500Y0064902D01*
X0008500Y0058302D02*
X0008500Y0054902D01*
X0008500Y0048302D02*
X0008500Y0044902D01*
X0008500Y0038302D02*
X0008500Y0036602D01*
X0028500Y0036602D01*
X0028500Y0039902D01*
X0028500Y0044902D02*
X0028500Y0048302D01*
X0028500Y0054902D02*
X0028500Y0058302D01*
X0028500Y0064902D02*
X0028500Y0068302D01*
X0028500Y0074902D02*
X0028500Y0078302D01*
X0028500Y0084902D02*
X0028500Y0088302D01*
X0028500Y0094902D02*
X0028500Y0098302D01*
X0039000Y0037602D02*
X0054000Y0037602D01*
X0054060Y0037600D01*
X0054121Y0037595D01*
X0054180Y0037586D01*
X0054239Y0037573D01*
X0054298Y0037557D01*
X0054355Y0037537D01*
X0054410Y0037514D01*
X0054465Y0037487D01*
X0054517Y0037458D01*
X0054568Y0037425D01*
X0054617Y0037389D01*
X0054663Y0037351D01*
X0054707Y0037309D01*
X0054749Y0037265D01*
X0054787Y0037219D01*
X0054823Y0037170D01*
X0054856Y0037119D01*
X0054885Y0037067D01*
X0054912Y0037012D01*
X0054935Y0036957D01*
X0054955Y0036900D01*
X0054971Y0036841D01*
X0054984Y0036782D01*
X0054993Y0036723D01*
X0054998Y0036662D01*
X0055000Y0036602D01*
X0055000Y0026602D01*
X0054998Y0026542D01*
X0054993Y0026481D01*
X0054984Y0026422D01*
X0054971Y0026363D01*
X0054955Y0026304D01*
X0054935Y0026247D01*
X0054912Y0026192D01*
X0054885Y0026137D01*
X0054856Y0026085D01*
X0054823Y0026034D01*
X0054787Y0025985D01*
X0054749Y0025939D01*
X0054707Y0025895D01*
X0054663Y0025853D01*
X0054617Y0025815D01*
X0054568Y0025779D01*
X0054517Y0025746D01*
X0054465Y0025717D01*
X0054410Y0025690D01*
X0054355Y0025667D01*
X0054298Y0025647D01*
X0054239Y0025631D01*
X0054180Y0025618D01*
X0054121Y0025609D01*
X0054060Y0025604D01*
X0054000Y0025602D01*
X0039000Y0025602D01*
X0038940Y0025604D01*
X0038879Y0025609D01*
X0038820Y0025618D01*
X0038761Y0025631D01*
X0038702Y0025647D01*
X0038645Y0025667D01*
X0038590Y0025690D01*
X0038535Y0025717D01*
X0038483Y0025746D01*
X0038432Y0025779D01*
X0038383Y0025815D01*
X0038337Y0025853D01*
X0038293Y0025895D01*
X0038251Y0025939D01*
X0038213Y0025985D01*
X0038177Y0026034D01*
X0038144Y0026085D01*
X0038115Y0026137D01*
X0038088Y0026192D01*
X0038065Y0026247D01*
X0038045Y0026304D01*
X0038029Y0026363D01*
X0038016Y0026422D01*
X0038007Y0026481D01*
X0038002Y0026542D01*
X0038000Y0026602D01*
X0038000Y0036602D01*
X0038002Y0036662D01*
X0038007Y0036723D01*
X0038016Y0036782D01*
X0038029Y0036841D01*
X0038045Y0036900D01*
X0038065Y0036957D01*
X0038088Y0037012D01*
X0038115Y0037067D01*
X0038144Y0037119D01*
X0038177Y0037170D01*
X0038213Y0037219D01*
X0038251Y0037265D01*
X0038293Y0037309D01*
X0038337Y0037351D01*
X0038383Y0037389D01*
X0038432Y0037425D01*
X0038483Y0037458D01*
X0038535Y0037487D01*
X0038590Y0037514D01*
X0038645Y0037537D01*
X0038702Y0037557D01*
X0038761Y0037573D01*
X0038820Y0037586D01*
X0038879Y0037595D01*
X0038940Y0037600D01*
X0039000Y0037602D01*
X0122500Y0024121D02*
X0145500Y0024121D01*
X0145500Y0124121D01*
X0138000Y0124121D01*
X0137998Y0123995D01*
X0137992Y0123870D01*
X0137982Y0123745D01*
X0137968Y0123620D01*
X0137951Y0123495D01*
X0137929Y0123371D01*
X0137904Y0123248D01*
X0137874Y0123126D01*
X0137841Y0123005D01*
X0137804Y0122885D01*
X0137764Y0122766D01*
X0137719Y0122649D01*
X0137671Y0122532D01*
X0137619Y0122418D01*
X0137564Y0122305D01*
X0137505Y0122194D01*
X0137443Y0122085D01*
X0137377Y0121978D01*
X0137308Y0121873D01*
X0137236Y0121770D01*
X0137161Y0121669D01*
X0137082Y0121571D01*
X0137000Y0121476D01*
X0136916Y0121383D01*
X0136828Y0121293D01*
X0136738Y0121205D01*
X0136645Y0121121D01*
X0136550Y0121039D01*
X0136452Y0120960D01*
X0136351Y0120885D01*
X0136248Y0120813D01*
X0136143Y0120744D01*
X0136036Y0120678D01*
X0135927Y0120616D01*
X0135816Y0120557D01*
X0135703Y0120502D01*
X0135589Y0120450D01*
X0135472Y0120402D01*
X0135355Y0120357D01*
X0135236Y0120317D01*
X0135116Y0120280D01*
X0134995Y0120247D01*
X0134873Y0120217D01*
X0134750Y0120192D01*
X0134626Y0120170D01*
X0134501Y0120153D01*
X0134376Y0120139D01*
X0134251Y0120129D01*
X0134126Y0120123D01*
X0134000Y0120121D01*
X0133874Y0120123D01*
X0133749Y0120129D01*
X0133624Y0120139D01*
X0133499Y0120153D01*
X0133374Y0120170D01*
X0133250Y0120192D01*
X0133127Y0120217D01*
X0133005Y0120247D01*
X0132884Y0120280D01*
X0132764Y0120317D01*
X0132645Y0120357D01*
X0132528Y0120402D01*
X0132411Y0120450D01*
X0132297Y0120502D01*
X0132184Y0120557D01*
X0132073Y0120616D01*
X0131964Y0120678D01*
X0131857Y0120744D01*
X0131752Y0120813D01*
X0131649Y0120885D01*
X0131548Y0120960D01*
X0131450Y0121039D01*
X0131355Y0121121D01*
X0131262Y0121205D01*
X0131172Y0121293D01*
X0131084Y0121383D01*
X0131000Y0121476D01*
X0130918Y0121571D01*
X0130839Y0121669D01*
X0130764Y0121770D01*
X0130692Y0121873D01*
X0130623Y0121978D01*
X0130557Y0122085D01*
X0130495Y0122194D01*
X0130436Y0122305D01*
X0130381Y0122418D01*
X0130329Y0122532D01*
X0130281Y0122649D01*
X0130236Y0122766D01*
X0130196Y0122885D01*
X0130159Y0123005D01*
X0130126Y0123126D01*
X0130096Y0123248D01*
X0130071Y0123371D01*
X0130049Y0123495D01*
X0130032Y0123620D01*
X0130018Y0123745D01*
X0130008Y0123870D01*
X0130002Y0123995D01*
X0130000Y0124121D01*
X0122500Y0124121D01*
X0122500Y0024121D01*
X0159000Y0051602D02*
X0159000Y0056602D01*
X0161500Y0059102D01*
X0159000Y0061602D01*
X0159000Y0066602D01*
X0161500Y0069102D01*
X0159000Y0071602D01*
X0159000Y0076602D01*
X0161500Y0079102D01*
X0166500Y0079102D01*
X0169000Y0076602D01*
X0169000Y0071602D01*
X0166500Y0069102D01*
X0169000Y0066602D01*
X0169000Y0061602D01*
X0166500Y0059102D01*
X0169000Y0056602D01*
X0169000Y0051602D01*
X0166500Y0049102D01*
X0161500Y0049102D01*
X0159000Y0051602D01*
X0161500Y0059102D02*
X0166500Y0059102D01*
X0166500Y0069102D02*
X0161500Y0069102D01*
X0161500Y0091602D02*
X0166500Y0091602D01*
X0169000Y0094102D01*
X0169000Y0099102D01*
X0166500Y0101602D01*
X0161500Y0101602D01*
X0159000Y0099102D01*
X0159000Y0094102D01*
X0161500Y0091602D01*
X0161500Y0109102D02*
X0166500Y0109102D01*
X0169000Y0111602D01*
X0169000Y0116602D01*
X0166500Y0119102D01*
X0161500Y0119102D01*
X0159000Y0116602D01*
X0159000Y0111602D01*
X0161500Y0109102D01*
D17*
X0038000Y0110102D02*
X0037924Y0110104D01*
X0037848Y0110110D01*
X0037773Y0110119D01*
X0037698Y0110133D01*
X0037624Y0110150D01*
X0037551Y0110171D01*
X0037479Y0110195D01*
X0037408Y0110224D01*
X0037339Y0110255D01*
X0037272Y0110290D01*
X0037207Y0110329D01*
X0037143Y0110371D01*
X0037082Y0110416D01*
X0037023Y0110464D01*
X0036967Y0110515D01*
X0036913Y0110569D01*
X0036862Y0110625D01*
X0036814Y0110684D01*
X0036769Y0110745D01*
X0036727Y0110809D01*
X0036688Y0110874D01*
X0036653Y0110941D01*
X0036622Y0111010D01*
X0036593Y0111081D01*
X0036569Y0111153D01*
X0036548Y0111226D01*
X0036531Y0111300D01*
X0036517Y0111375D01*
X0036508Y0111450D01*
X0036502Y0111526D01*
X0036500Y0111602D01*
X0036502Y0111678D01*
X0036508Y0111754D01*
X0036517Y0111829D01*
X0036531Y0111904D01*
X0036548Y0111978D01*
X0036569Y0112051D01*
X0036593Y0112123D01*
X0036622Y0112194D01*
X0036653Y0112263D01*
X0036688Y0112330D01*
X0036727Y0112395D01*
X0036769Y0112459D01*
X0036814Y0112520D01*
X0036862Y0112579D01*
X0036913Y0112635D01*
X0036967Y0112689D01*
X0037023Y0112740D01*
X0037082Y0112788D01*
X0037143Y0112833D01*
X0037207Y0112875D01*
X0037272Y0112914D01*
X0037339Y0112949D01*
X0037408Y0112980D01*
X0037479Y0113009D01*
X0037551Y0113033D01*
X0037624Y0113054D01*
X0037698Y0113071D01*
X0037773Y0113085D01*
X0037848Y0113094D01*
X0037924Y0113100D01*
X0038000Y0113102D01*
X0038076Y0113100D01*
X0038152Y0113094D01*
X0038227Y0113085D01*
X0038302Y0113071D01*
X0038376Y0113054D01*
X0038449Y0113033D01*
X0038521Y0113009D01*
X0038592Y0112980D01*
X0038661Y0112949D01*
X0038728Y0112914D01*
X0038793Y0112875D01*
X0038857Y0112833D01*
X0038918Y0112788D01*
X0038977Y0112740D01*
X0039033Y0112689D01*
X0039087Y0112635D01*
X0039138Y0112579D01*
X0039186Y0112520D01*
X0039231Y0112459D01*
X0039273Y0112395D01*
X0039312Y0112330D01*
X0039347Y0112263D01*
X0039378Y0112194D01*
X0039407Y0112123D01*
X0039431Y0112051D01*
X0039452Y0111978D01*
X0039469Y0111904D01*
X0039483Y0111829D01*
X0039492Y0111754D01*
X0039498Y0111678D01*
X0039500Y0111602D01*
X0039498Y0111526D01*
X0039492Y0111450D01*
X0039483Y0111375D01*
X0039469Y0111300D01*
X0039452Y0111226D01*
X0039431Y0111153D01*
X0039407Y0111081D01*
X0039378Y0111010D01*
X0039347Y0110941D01*
X0039312Y0110874D01*
X0039273Y0110809D01*
X0039231Y0110745D01*
X0039186Y0110684D01*
X0039138Y0110625D01*
X0039087Y0110569D01*
X0039033Y0110515D01*
X0038977Y0110464D01*
X0038918Y0110416D01*
X0038857Y0110371D01*
X0038793Y0110329D01*
X0038728Y0110290D01*
X0038661Y0110255D01*
X0038592Y0110224D01*
X0038521Y0110195D01*
X0038449Y0110171D01*
X0038376Y0110150D01*
X0038302Y0110133D01*
X0038227Y0110119D01*
X0038152Y0110110D01*
X0038076Y0110104D01*
X0038000Y0110102D01*
D18*
X0037445Y0049476D02*
X0036657Y0049476D01*
X0036657Y0036606D01*
X0039142Y0034121D01*
X0040594Y0033728D02*
X0042169Y0033728D01*
X0045713Y0033728D02*
X0047287Y0033728D01*
X0050831Y0033728D02*
X0052406Y0033728D01*
X0055555Y0033728D02*
X0056343Y0033728D01*
X0056343Y0049476D01*
X0055949Y0049476D01*
X0052406Y0049476D02*
X0050831Y0049476D01*
X0047287Y0049476D02*
X0045713Y0049476D01*
X0042563Y0049476D02*
X0040594Y0049476D01*
X0132726Y0048519D02*
X0132726Y0047018D01*
X0133477Y0046267D01*
X0134978Y0047769D02*
X0134978Y0048519D01*
X0135729Y0049270D01*
X0136480Y0049270D01*
X0137230Y0048519D01*
X0137230Y0047018D01*
X0136480Y0046267D01*
X0134978Y0048519D02*
X0134228Y0049270D01*
X0133477Y0049270D01*
X0132726Y0048519D01*
X0133477Y0050871D02*
X0132726Y0051622D01*
X0132726Y0053123D01*
X0133477Y0053874D01*
X0136480Y0050871D01*
X0137230Y0051622D01*
X0137230Y0053123D01*
X0136480Y0053874D01*
X0133477Y0053874D01*
X0133477Y0055475D02*
X0132726Y0056226D01*
X0132726Y0057727D01*
X0133477Y0058478D01*
X0134978Y0058478D02*
X0134978Y0056976D01*
X0134978Y0058478D02*
X0136480Y0058478D01*
X0137230Y0057727D01*
X0137230Y0056226D01*
X0136480Y0055475D01*
X0133477Y0055475D01*
X0133477Y0060079D02*
X0132726Y0060830D01*
X0132726Y0062331D01*
X0133477Y0063082D01*
X0134228Y0063082D01*
X0137230Y0060079D01*
X0137230Y0063082D01*
X0136480Y0064683D02*
X0137230Y0065434D01*
X0137230Y0066935D01*
X0136480Y0067686D01*
X0134978Y0067686D01*
X0134228Y0066935D01*
X0134228Y0066184D01*
X0134978Y0064683D01*
X0132726Y0064683D01*
X0132726Y0067686D01*
X0132726Y0069287D02*
X0134978Y0069287D01*
X0134228Y0070788D01*
X0134228Y0071539D01*
X0134978Y0072290D01*
X0136480Y0072290D01*
X0137230Y0071539D01*
X0137230Y0070038D01*
X0136480Y0069287D01*
X0132726Y0069287D02*
X0132726Y0072290D01*
X0133477Y0073891D02*
X0132726Y0074642D01*
X0132726Y0076143D01*
X0133477Y0076893D01*
X0134228Y0076893D01*
X0134978Y0076143D01*
X0135729Y0076893D01*
X0136480Y0076893D01*
X0137230Y0076143D01*
X0137230Y0074642D01*
X0136480Y0073891D01*
X0134978Y0075392D02*
X0134978Y0076143D01*
X0162046Y0079052D02*
X0162046Y0081304D01*
X0162797Y0082054D01*
X0164298Y0082054D01*
X0165049Y0081304D01*
X0165049Y0079052D01*
X0165049Y0080553D02*
X0166550Y0082054D01*
X0165799Y0083656D02*
X0166550Y0084406D01*
X0166550Y0085907D01*
X0165799Y0086658D01*
X0165049Y0086658D01*
X0164298Y0085907D01*
X0164298Y0084406D01*
X0163547Y0083656D01*
X0162797Y0083656D01*
X0162046Y0084406D01*
X0162046Y0085907D01*
X0162797Y0086658D01*
X0162046Y0088259D02*
X0162046Y0091262D01*
X0162046Y0089761D02*
X0166550Y0089761D01*
X0166550Y0079052D02*
X0162046Y0079052D01*
X0162046Y0101552D02*
X0162046Y0104554D01*
X0162046Y0103053D02*
X0166550Y0103053D01*
X0165799Y0106156D02*
X0166550Y0106906D01*
X0166550Y0108407D01*
X0165799Y0109158D01*
X0165049Y0109158D01*
X0164298Y0108407D01*
X0164298Y0106906D01*
X0163547Y0106156D01*
X0162797Y0106156D01*
X0162046Y0106906D01*
X0162046Y0108407D01*
X0162797Y0109158D01*
X0162046Y0110759D02*
X0162046Y0113762D01*
X0162046Y0112261D02*
X0166550Y0112261D01*
X0125000Y0121602D02*
X0125002Y0121679D01*
X0125008Y0121756D01*
X0125018Y0121833D01*
X0125032Y0121909D01*
X0125049Y0121984D01*
X0125071Y0122058D01*
X0125096Y0122131D01*
X0125126Y0122203D01*
X0125158Y0122273D01*
X0125195Y0122341D01*
X0125234Y0122407D01*
X0125277Y0122471D01*
X0125324Y0122533D01*
X0125373Y0122592D01*
X0125426Y0122649D01*
X0125481Y0122703D01*
X0125539Y0122754D01*
X0125600Y0122802D01*
X0125663Y0122847D01*
X0125728Y0122888D01*
X0125795Y0122926D01*
X0125864Y0122961D01*
X0125935Y0122991D01*
X0126007Y0123019D01*
X0126081Y0123042D01*
X0126155Y0123062D01*
X0126231Y0123078D01*
X0126307Y0123090D01*
X0126384Y0123098D01*
X0126461Y0123102D01*
X0126539Y0123102D01*
X0126616Y0123098D01*
X0126693Y0123090D01*
X0126769Y0123078D01*
X0126845Y0123062D01*
X0126919Y0123042D01*
X0126993Y0123019D01*
X0127065Y0122991D01*
X0127136Y0122961D01*
X0127205Y0122926D01*
X0127272Y0122888D01*
X0127337Y0122847D01*
X0127400Y0122802D01*
X0127461Y0122754D01*
X0127519Y0122703D01*
X0127574Y0122649D01*
X0127627Y0122592D01*
X0127676Y0122533D01*
X0127723Y0122471D01*
X0127766Y0122407D01*
X0127805Y0122341D01*
X0127842Y0122273D01*
X0127874Y0122203D01*
X0127904Y0122131D01*
X0127929Y0122058D01*
X0127951Y0121984D01*
X0127968Y0121909D01*
X0127982Y0121833D01*
X0127992Y0121756D01*
X0127998Y0121679D01*
X0128000Y0121602D01*
X0127998Y0121525D01*
X0127992Y0121448D01*
X0127982Y0121371D01*
X0127968Y0121295D01*
X0127951Y0121220D01*
X0127929Y0121146D01*
X0127904Y0121073D01*
X0127874Y0121001D01*
X0127842Y0120931D01*
X0127805Y0120863D01*
X0127766Y0120797D01*
X0127723Y0120733D01*
X0127676Y0120671D01*
X0127627Y0120612D01*
X0127574Y0120555D01*
X0127519Y0120501D01*
X0127461Y0120450D01*
X0127400Y0120402D01*
X0127337Y0120357D01*
X0127272Y0120316D01*
X0127205Y0120278D01*
X0127136Y0120243D01*
X0127065Y0120213D01*
X0126993Y0120185D01*
X0126919Y0120162D01*
X0126845Y0120142D01*
X0126769Y0120126D01*
X0126693Y0120114D01*
X0126616Y0120106D01*
X0126539Y0120102D01*
X0126461Y0120102D01*
X0126384Y0120106D01*
X0126307Y0120114D01*
X0126231Y0120126D01*
X0126155Y0120142D01*
X0126081Y0120162D01*
X0126007Y0120185D01*
X0125935Y0120213D01*
X0125864Y0120243D01*
X0125795Y0120278D01*
X0125728Y0120316D01*
X0125663Y0120357D01*
X0125600Y0120402D01*
X0125539Y0120450D01*
X0125481Y0120501D01*
X0125426Y0120555D01*
X0125373Y0120612D01*
X0125324Y0120671D01*
X0125277Y0120733D01*
X0125234Y0120797D01*
X0125195Y0120863D01*
X0125158Y0120931D01*
X0125126Y0121001D01*
X0125096Y0121073D01*
X0125071Y0121146D01*
X0125049Y0121220D01*
X0125032Y0121295D01*
X0125018Y0121371D01*
X0125008Y0121448D01*
X0125002Y0121525D01*
X0125000Y0121602D01*
X0133477Y0050871D02*
X0136480Y0050871D01*
X0134978Y0044666D02*
X0134978Y0041663D01*
X0132726Y0043915D01*
X0137230Y0043915D01*
X0134978Y0040062D02*
X0133477Y0040062D01*
X0132726Y0039311D01*
X0132726Y0037059D01*
X0137230Y0037059D01*
X0135729Y0037059D02*
X0135729Y0039311D01*
X0134978Y0040062D01*
X0135729Y0035458D02*
X0136480Y0035458D01*
X0137230Y0034707D01*
X0137230Y0033206D01*
X0136480Y0032456D01*
X0134978Y0033206D02*
X0134978Y0034707D01*
X0135729Y0035458D01*
X0133477Y0035458D02*
X0132726Y0034707D01*
X0132726Y0033206D01*
X0133477Y0032456D01*
X0134228Y0032456D01*
X0134978Y0033206D01*
X0132726Y0030854D02*
X0137230Y0030854D01*
X0134228Y0029353D02*
X0132726Y0030854D01*
X0134228Y0029353D02*
X0132726Y0027852D01*
X0137230Y0027852D01*
X0162046Y0039052D02*
X0162046Y0040553D01*
X0162046Y0039802D02*
X0166550Y0039802D01*
X0166550Y0039052D02*
X0166550Y0040553D01*
X0166550Y0042121D02*
X0163547Y0045123D01*
X0162797Y0045123D01*
X0162046Y0044373D01*
X0162046Y0042872D01*
X0162797Y0042121D01*
X0166550Y0042121D02*
X0166550Y0045123D01*
X0165799Y0046725D02*
X0166550Y0047475D01*
X0166550Y0048977D01*
X0165799Y0049727D01*
X0162797Y0049727D02*
X0162046Y0048977D01*
X0162046Y0047475D01*
X0162797Y0046725D01*
X0165799Y0046725D01*
D19*
X0035000Y0033602D03*
M02*
