G75*
%MOIN*%
%OFA0B0*%
%FSLAX25Y25*%
%IPPOS*%
%LPD*%
%AMOC8*
5,1,8,0,0,1.08239X$1,22.5*
%
%ADD10C,0.00000*%
%ADD11R,0.06299X0.07087*%
%ADD12R,0.04331X0.03937*%
%ADD13R,0.03937X0.04331*%
%ADD14R,0.08661X0.02362*%
%ADD15R,0.05512X0.07087*%
%ADD16R,0.05512X0.03937*%
%ADD17R,0.07500X0.04000*%
%ADD18R,0.02362X0.05512*%
%ADD19R,0.05000X0.10000*%
D10*
X0001500Y0021602D02*
X0001500Y0126562D01*
X0170201Y0126562D01*
X0170201Y0021602D01*
X0001500Y0021602D01*
D11*
X0060988Y0029102D03*
X0072012Y0029102D03*
X0052012Y0071602D03*
X0040988Y0071602D03*
D12*
X0050654Y0059102D03*
X0057346Y0059102D03*
X0056500Y0085755D03*
X0064000Y0085755D03*
X0064000Y0092448D03*
X0056500Y0092448D03*
X0049000Y0113255D03*
X0049000Y0119948D03*
X0064000Y0119948D03*
X0064000Y0113255D03*
X0103154Y0081602D03*
X0109846Y0081602D03*
D13*
X0109846Y0089102D03*
X0103154Y0089102D03*
X0103154Y0096602D03*
X0109846Y0096602D03*
X0109846Y0104102D03*
X0103154Y0104102D03*
X0103154Y0111602D03*
X0109846Y0111602D03*
X0109846Y0119102D03*
X0103154Y0119102D03*
X0104846Y0029102D03*
X0098154Y0029102D03*
D14*
X0094236Y0089102D03*
X0094236Y0094102D03*
X0094236Y0099102D03*
X0094236Y0104102D03*
X0094236Y0109102D03*
X0094236Y0114102D03*
X0094236Y0119102D03*
X0073764Y0119102D03*
X0073764Y0114102D03*
X0073764Y0109102D03*
X0073764Y0104102D03*
X0073764Y0099102D03*
X0073764Y0094102D03*
X0073764Y0089102D03*
D15*
X0063193Y0104102D03*
X0049807Y0104102D03*
D16*
X0048331Y0092842D03*
X0039669Y0089102D03*
X0048331Y0085361D03*
D17*
X0030500Y0091602D03*
X0030500Y0101602D03*
X0030500Y0111602D03*
X0006500Y0111602D03*
X0006500Y0101602D03*
X0006500Y0091602D03*
X0006500Y0071602D03*
X0006500Y0061602D03*
X0006500Y0051602D03*
X0006500Y0041602D03*
X0030500Y0041602D03*
X0030500Y0051602D03*
X0030500Y0061602D03*
X0030500Y0071602D03*
D18*
X0039000Y0052232D03*
X0044000Y0052232D03*
X0049000Y0052232D03*
X0054000Y0052232D03*
X0054000Y0030972D03*
X0049000Y0030972D03*
X0044000Y0030972D03*
X0039000Y0030972D03*
D19*
X0041500Y0031602D03*
X0051500Y0031602D03*
M02*
