G75*
%MOIN*%
%OFA0B0*%
%FSLAX25Y25*%
%IPPOS*%
%LPD*%
%AMOC8*
5,1,8,0,0,1.08239X$1,22.5*
%
%ADD10C,0.00000*%
%ADD11R,0.06699X0.07487*%
%ADD12R,0.04731X0.04337*%
%ADD13C,0.08668*%
%ADD14R,0.08668X0.08668*%
%ADD15R,0.04337X0.04731*%
%ADD16R,0.09061X0.02762*%
%ADD17R,0.05912X0.07487*%
%ADD18R,0.05912X0.04337*%
%ADD19R,0.07900X0.04400*%
%ADD20C,0.06400*%
%ADD21R,0.02762X0.05912*%
%ADD22R,0.05400X0.10400*%
%ADD23C,0.05600*%
%ADD24C,0.05400*%
%ADD25OC8,0.08000*%
D10*
X0001500Y0021602D02*
X0001500Y0126562D01*
X0170201Y0126562D01*
X0170201Y0021602D01*
X0001500Y0021602D01*
D11*
X0060988Y0029102D03*
X0072012Y0029102D03*
X0052012Y0071602D03*
X0040988Y0071602D03*
D12*
X0050654Y0059102D03*
X0057346Y0059102D03*
X0056500Y0085755D03*
X0064000Y0085755D03*
X0064000Y0092448D03*
X0056500Y0092448D03*
X0049000Y0113255D03*
X0049000Y0119948D03*
X0064000Y0119948D03*
X0064000Y0113255D03*
X0103154Y0081602D03*
X0109846Y0081602D03*
D13*
X0105240Y0070617D03*
X0067760Y0056602D03*
X0067760Y0042586D03*
X0105240Y0042586D03*
D14*
X0067760Y0070617D03*
D15*
X0103154Y0089102D03*
X0109846Y0089102D03*
X0109846Y0096602D03*
X0103154Y0096602D03*
X0103154Y0104102D03*
X0109846Y0104102D03*
X0109846Y0111602D03*
X0103154Y0111602D03*
X0103154Y0119102D03*
X0109846Y0119102D03*
X0104846Y0029102D03*
X0098154Y0029102D03*
D16*
X0094236Y0089102D03*
X0094236Y0094102D03*
X0094236Y0099102D03*
X0094236Y0104102D03*
X0094236Y0109102D03*
X0094236Y0114102D03*
X0094236Y0119102D03*
X0073764Y0119102D03*
X0073764Y0114102D03*
X0073764Y0109102D03*
X0073764Y0104102D03*
X0073764Y0099102D03*
X0073764Y0094102D03*
X0073764Y0089102D03*
D17*
X0063193Y0104102D03*
X0049807Y0104102D03*
D18*
X0048331Y0092842D03*
X0039669Y0089102D03*
X0048331Y0085361D03*
D19*
X0030500Y0091602D03*
X0030500Y0101602D03*
X0030500Y0111602D03*
X0006500Y0111602D03*
X0006500Y0101602D03*
X0006500Y0091602D03*
X0006500Y0071602D03*
X0006500Y0061602D03*
X0006500Y0051602D03*
X0006500Y0041602D03*
X0030500Y0041602D03*
X0030500Y0051602D03*
X0030500Y0061602D03*
X0030500Y0071602D03*
D20*
X0023500Y0071602D03*
X0013500Y0071602D03*
X0013500Y0061602D03*
X0023500Y0061602D03*
X0023500Y0051602D03*
X0013500Y0051602D03*
X0013500Y0041602D03*
X0023500Y0041602D03*
X0023500Y0091602D03*
X0013500Y0091602D03*
X0013500Y0101602D03*
X0023500Y0101602D03*
X0023500Y0111602D03*
X0013500Y0111602D03*
X0164000Y0074102D03*
X0164000Y0064102D03*
X0164000Y0054102D03*
D21*
X0054000Y0052232D03*
X0049000Y0052232D03*
X0044000Y0052232D03*
X0039000Y0052232D03*
X0039000Y0030972D03*
X0044000Y0030972D03*
X0049000Y0030972D03*
X0054000Y0030972D03*
D22*
X0051500Y0031602D03*
X0041500Y0031602D03*
D23*
X0116400Y0029121D02*
X0121600Y0029121D01*
X0121600Y0039121D02*
X0116400Y0039121D01*
X0116400Y0049121D02*
X0121600Y0049121D01*
X0121600Y0059121D02*
X0116400Y0059121D01*
X0116400Y0069121D02*
X0121600Y0069121D01*
X0121600Y0079121D02*
X0116400Y0079121D01*
X0116400Y0089121D02*
X0121600Y0089121D01*
X0121600Y0099121D02*
X0116400Y0099121D01*
X0116400Y0109121D02*
X0121600Y0109121D01*
X0121600Y0119121D02*
X0116400Y0119121D01*
X0146400Y0119121D02*
X0151600Y0119121D01*
X0151600Y0109121D02*
X0146400Y0109121D01*
X0146400Y0099121D02*
X0151600Y0099121D01*
X0151600Y0089121D02*
X0146400Y0089121D01*
X0146400Y0079121D02*
X0151600Y0079121D01*
X0151600Y0069121D02*
X0146400Y0069121D01*
X0146400Y0059121D02*
X0151600Y0059121D01*
X0151600Y0049121D02*
X0146400Y0049121D01*
X0146400Y0039121D02*
X0151600Y0039121D01*
X0151600Y0029121D02*
X0146400Y0029121D01*
D24*
X0056500Y0094102D03*
D25*
X0164000Y0096602D03*
X0164000Y0114102D03*
M02*
