%
M48
M72
T01C0.02362
T02C0.03200
T03C0.04000
T04C0.05512
%
T01
X64000Y49102
X79000Y44102
X71500Y29102
X96500Y29102
X41500Y71602
X56500Y94102
X64000Y104102
X71500Y94102
X91480Y94082
X104000Y81602
X94000Y79102
X109000Y96602
X86480Y116582
X109000Y119102
X31500Y111602
X31500Y101602
X6500Y101602
X6500Y111602
X6500Y91602
T02
X119000Y89121
X119000Y79121
X119000Y69121
X119000Y59121
X119000Y49121
X119000Y39121
X119000Y29121
X149000Y29121
X149000Y39121
X149000Y49121
X149000Y59121
X149000Y69121
X149000Y79121
X149000Y89121
X149000Y99121
X149000Y109121
X149000Y119121
X119000Y119121
X119000Y109121
X119000Y99121
T03
X13500Y41602
X23500Y41602
X23500Y51602
X13500Y51602
X13500Y61602
X23500Y61602
X23500Y71602
X13500Y71602
X13500Y91602
X23500Y91602
X23500Y101602
X13500Y101602
X13500Y111602
X23500Y111602
X164000Y114102
X164000Y96602
X164000Y74102
X164000Y64102
X164000Y54102
T04
X105240Y42586
X67760Y42586
X67760Y56602
X67760Y70617
X105240Y70617
M30
